<svg xmlns="http://www.w3.org/2000/svg" viewBox="0 0 305.625 305.625">
    <g fill="none" stroke="#e7921e" stroke-width="8" stroke-linecap="round" stroke-linejoin="round" stroke-miterlimit="10">
        <circle cx="152.809" cy="104.566" r="78.581"/>
        <path d="M75.984 161.947c17.138 23.904 45.168 39.475 76.828 39.475s59.678-15.57 76.817-39.475M215.32 56.948h20.36c11.807 0 21.378 9.57 21.378 21.377V100.6c0 4.587-3.718 8.305-8.305 8.305h-17.485M74.346 108.905H56.872c-4.587 0-8.305-3.718-8.305-8.305V78.325c0-11.806 9.57-21.377 21.377-21.377h20.36M52.22 166.314v-57.41M253.392 166.314v-57.41"/>
        <path d="M206.503 161.947h25.33c27.477 0 49.754 22.278 49.754 49.753v89.924H24.037V211.7c0-27.476 22.267-49.753 49.743-49.753h25.342M152.812 203.202v98.226M76.196 164.305v137.123M229.43 164.305v137.123"/>
        <path d="M171.054 236.933h40.314v17.25h-40.314zM215.32 56.948h17.056v-32.61C232.376 13.106 223.27 4 212.036 4H109.224C89.355 4 73.25 20.106 73.25 39.974v16.974h17.055"/>
        <path d="M219.893 33.468h-15.707V16.395h5.677c5.54 0 10.03 4.49 10.03 10.03v7.043zM281.338 206.746H257.29v25.792h24.293M91.93 107.72c0 32.715 27.257 59.236 60.878 59.236s60.877-26.52 60.877-59.236S186.43 60.6 152.808 60.6 91.93 75.005 91.93 107.72zM166.383 75.338c-.88-.163-1.762-.308-2.647-.435M198.59 110.57c-.002-13.084-5.32-24.946-18.67-30.817"/>
    </g>
</svg>